<?xml version="1.0" encoding="UTF-8" standalone="no"?>
<!DOCTYPE svg PUBLIC "-//W3C//DTD SVG 1.1//EN" "http://www.w3.org/Graphics/SVG/1.1/DTD/svg11.dtd">
<svg width="100%" height="100%" viewBox="0 0 411 380" version="1.1" xmlns="http://www.w3.org/2000/svg" xmlns:xlink="http://www.w3.org/1999/xlink" xml:space="preserve" xmlns:serif="http://www.serif.com/" style="fill-rule:evenodd;clip-rule:evenodd;stroke-linecap:round;stroke-linejoin:round;stroke-miterlimit:1.5;">
    <g transform="matrix(1,0,0,1,-323.862,-111.315)">
        <g transform="matrix(1,0,0,1,-138.026,0)">
            <path d="M701.29,308.889C701.29,258.076 649.723,216.823 586.207,216.823C522.692,216.823 471.125,258.076 471.125,308.889C471.125,338.917 489.43,367.058 520.171,384.289L505.65,446.987L556.389,397.81C566.114,399.897 576.139,400.954 586.207,400.954C649.723,400.954 701.29,359.701 701.29,308.889Z" style="fill:rgb(100,226,59);stroke:rgb(100,226,59);stroke-width:18.47px;"/>
        </g>
        <g transform="matrix(0.590059,0,0,0.590059,311.75,53.2997)">
            <path d="M701.29,308.889C701.29,258.076 649.723,216.823 586.207,216.823C522.692,216.823 471.125,258.076 471.125,308.889C471.125,338.917 489.43,367.058 520.171,384.289L505.65,446.987L556.389,397.81C566.114,399.897 576.139,400.954 586.207,400.954C649.723,400.954 701.29,359.701 701.29,308.889Z" style="fill:none;stroke:rgb(100,226,59);stroke-opacity:0.53;stroke-width:31.31px;"/>
        </g>
        <g transform="matrix(0.381575,0,0,0.381575,365.79,311.335)">
            <path d="M701.29,308.889C701.29,258.076 649.723,216.823 586.207,216.823C522.692,216.823 471.125,258.076 471.125,308.889C471.125,338.917 489.43,367.058 520.171,384.289L505.65,446.987L556.389,397.81C566.114,399.897 576.139,400.954 586.207,400.954C649.723,400.954 701.29,359.701 701.29,308.889Z" style="fill:none;stroke:rgb(100,226,59);stroke-opacity:0.53;stroke-width:48.42px;"/>
        </g>
        <g transform="matrix(0.29503,0,0,0.29503,518.651,267.936)">
            <path d="M701.29,308.889C701.29,258.076 649.723,216.823 586.207,216.823C522.692,216.823 471.125,258.076 471.125,308.889C471.125,338.917 489.43,367.058 520.171,384.289L505.65,446.987L556.389,397.81C566.114,399.897 576.139,400.954 586.207,400.954C649.723,400.954 701.29,359.701 701.29,308.889Z" style="fill:none;stroke:rgb(100,226,59);stroke-opacity:0.53;stroke-width:62.62px;"/>
        </g>
        <g transform="matrix(0.29503,0,0,0.29503,307.298,56.5833)">
            <path d="M701.29,308.889C701.29,258.076 649.723,216.823 586.207,216.823C522.692,216.823 471.125,258.076 471.125,308.889C471.125,338.917 489.43,367.058 520.171,384.289L505.65,446.987L556.389,397.81C566.114,399.897 576.139,400.954 586.207,400.954C649.723,400.954 701.29,359.701 701.29,308.889Z" style="fill:none;stroke:rgb(100,226,59);stroke-opacity:0.53;stroke-width:62.62px;"/>
        </g>
    </g>
</svg>
