<?xml version="1.0" encoding="UTF-8" standalone="no"?>
<!DOCTYPE svg PUBLIC "-//W3C//DTD SVG 1.1//EN" "http://www.w3.org/Graphics/SVG/1.1/DTD/svg11.dtd">
<svg width="100%" height="100%" viewBox="0 0 708 590" version="1.1" xmlns="http://www.w3.org/2000/svg" xmlns:xlink="http://www.w3.org/1999/xlink" xml:space="preserve" xmlns:serif="http://www.serif.com/" style="fill-rule:evenodd;clip-rule:evenodd;stroke-linecap:round;stroke-linejoin:round;stroke-miterlimit:1.5;">
    <g transform="matrix(1,0,0,1,-260.476,-132.378)">
        <g>
            <g transform="matrix(0.181473,0,0,0.181473,507.882,195.909)">
                <path d="M360.395,274.852L360.395,306.752C360.395,436.498 411.937,560.93 503.681,652.674C503.683,652.676 503.684,652.677 503.685,652.678C509.443,658.436 517.253,661.671 525.396,661.671C547.979,661.671 595.162,661.671 621.398,661.671C633.308,661.671 644.732,656.94 653.154,648.517C653.155,648.516 653.156,648.515 653.157,648.514C740.334,561.338 789.309,443.101 789.309,319.814C789.309,284.571 789.309,258.677 789.309,258.677" style="fill:none;stroke:rgb(100,226,59);stroke-width:71.5px;"/>
            </g>
            <g transform="matrix(0.278379,0,0,0.278379,444.256,197.564)">
                <path d="M515.904,437.14L515.904,496.67C570.899,536.74 625.894,537.114 680.888,496.67L680.888,437.14" style="fill:none;stroke:rgb(100,226,59);stroke-width:26.45px;"/>
            </g>
            <g transform="matrix(0.278379,0,0,0.278379,444.256,197.564)">
                <path d="M464.324,495.843L301.317,550.172L254.301,645.177" style="fill:none;stroke:rgb(100,226,59);stroke-width:46.61px;"/>
            </g>
            <g transform="matrix(0.278379,0,0,0.278379,444.256,197.564)">
                <path d="M366.468,806.732C421.11,875.344 416.246,954.498 446.325,1034.03C548.16,1038.51 693.141,1044.58 779.155,1033.63C825.565,940.458 798.019,876.034 840.133,786.863" style="fill:none;stroke:rgb(100,226,59);stroke-width:46.61px;"/>
            </g>
            <g transform="matrix(0.278379,0,0,0.278379,444.256,197.564)">
                <path d="M962.109,645.177L907.337,526.863L731.453,482.002" style="fill:none;stroke:rgb(100,226,59);stroke-width:46.61px;"/>
            </g>
            <g transform="matrix(0.516047,0,0,0.516047,311.288,210.192)">
                <path d="M785.018,359.296L788.408,444.51L732.335,531.855" style="fill:none;stroke:rgb(100,226,59);stroke-width:25.14px;"/>
            </g>
            <g transform="matrix(-0.516047,0,0,0.516047,921.904,210.192)">
                <path d="M785.018,359.296L788.408,444.51L732.335,531.855" style="fill:none;stroke:rgb(100,226,59);stroke-width:25.14px;"/>
            </g>
            <g transform="matrix(0.812694,0,0,0.812694,83.5786,138.6)">
                <path d="M597.058,448.694L595.755,492.422L587.193,710.081" style="fill:none;stroke:rgb(100,226,59);stroke-width:15.97px;"/>
            </g>
            <g transform="matrix(-0.812694,0,0,0.812694,1152.53,138.6)">
                <path d="M598.783,449.491L596.666,485.498L583.739,710.081" style="fill:none;stroke:rgb(100,226,59);stroke-width:15.97px;"/>
            </g>
            <g transform="matrix(-0.812694,0,0,0.812694,1097.01,138.6)">
                <path d="M591.134,579.387L583.739,710.081" style="fill:none;stroke:rgb(100,226,59);stroke-width:15.97px;"/>
            </g>
            <g transform="matrix(1,0,0,1,52.2315,0)">
                <path d="M909.041,221.012C909.041,175.675 863.03,138.866 806.358,138.866C749.686,138.866 703.675,175.675 703.675,221.012C703.675,247.805 720.008,272.915 747.437,288.289L734.48,344.232L779.753,300.353C788.43,302.216 797.374,303.159 806.358,303.159C863.03,303.159 909.041,266.35 909.041,221.012Z" style="fill:none;stroke:rgb(100,226,59);stroke-width:12.97px;"/>
            </g>
            <g transform="matrix(-1,0,0,1,1176,0)">
                <path d="M909.041,221.012C909.041,175.675 863.03,138.866 806.358,138.866C749.686,138.866 703.675,175.675 703.675,221.012C703.675,247.805 720.008,272.915 747.437,288.289L734.48,344.232L779.753,300.353C788.43,302.216 797.374,303.159 806.358,303.159C863.03,303.159 909.041,266.35 909.041,221.012Z" style="fill:none;stroke:rgb(100,226,59);stroke-width:12.97px;"/>
            </g>
            <g transform="matrix(0.561069,0,0,0.561069,383,281.085)">
                <path d="M909.041,221.012C909.041,175.675 863.03,138.866 806.358,138.866C749.686,138.866 703.675,175.675 703.675,221.012C703.675,247.805 720.008,272.915 747.437,288.289L734.48,344.232L779.753,300.353C788.43,302.216 797.374,303.159 806.358,303.159C863.03,303.159 909.041,266.35 909.041,221.012Z" style="fill:none;stroke:rgb(100,226,59);stroke-opacity:0.35;stroke-width:23.13px;"/>
            </g>
            <g transform="matrix(-0.561069,0,0,0.561069,845.236,281.085)">
                <path d="M909.041,221.012C909.041,175.675 863.03,138.866 806.358,138.866C749.686,138.866 703.675,175.675 703.675,221.012C703.675,247.805 720.008,272.915 747.437,288.289L734.48,344.232L779.753,300.353C788.43,302.216 797.374,303.159 806.358,303.159C863.03,303.159 909.041,266.35 909.041,221.012Z" style="fill:none;stroke:rgb(100,226,59);stroke-opacity:0.35;stroke-width:23.13px;"/>
            </g>
            <g transform="matrix(0.561069,0,0,0.561069,303.484,425.985)">
                <path d="M909.041,221.012C909.041,175.675 863.03,138.866 806.358,138.866C749.686,138.866 703.675,175.675 703.675,221.012C703.675,247.805 720.008,272.915 747.437,288.289L734.48,344.232L779.753,300.353C788.43,302.216 797.374,303.159 806.358,303.159C863.03,303.159 909.041,266.35 909.041,221.012Z" style="fill:none;stroke:rgb(100,226,59);stroke-opacity:0.35;stroke-width:23.13px;"/>
            </g>
            <g transform="matrix(-0.561069,0,0,0.561069,924.752,425.985)">
                <path d="M909.041,221.012C909.041,175.675 863.03,138.866 806.358,138.866C749.686,138.866 703.675,175.675 703.675,221.012C703.675,247.805 720.008,272.915 747.437,288.289L734.48,344.232L779.753,300.353C788.43,302.216 797.374,303.159 806.358,303.159C863.03,303.159 909.041,266.35 909.041,221.012Z" style="fill:none;stroke:rgb(100,226,59);stroke-opacity:0.35;stroke-width:23.13px;"/>
            </g>
        </g>
    </g>
</svg>
