<?xml version="1.0" encoding="UTF-8" standalone="no"?>
<!DOCTYPE svg PUBLIC "-//W3C//DTD SVG 1.1//EN" "http://www.w3.org/Graphics/SVG/1.1/DTD/svg11.dtd">
<svg width="100%" height="100%" viewBox="0 0 574 574" version="1.1" xmlns="http://www.w3.org/2000/svg" xmlns:xlink="http://www.w3.org/1999/xlink" xml:space="preserve" xmlns:serif="http://www.serif.com/" style="fill-rule:evenodd;clip-rule:evenodd;stroke-linecap:round;stroke-linejoin:round;stroke-miterlimit:1.5;">
    <g transform="matrix(1,0,0,1,-418.779,-159.962)">
        <g>
            <g transform="matrix(1,0,0,1,33.8286,0)">
                <circle cx="671.71" cy="446.721" r="286.759" style="fill:url(#_Linear1);"/>
            </g>
            <g transform="matrix(0.826576,0,0,0.882052,122.357,51.8021)">
                <g transform="matrix(1,0,0,1,448.288,23.2919)">
                    <circle cx="257.25" cy="340.987" r="115.246" style="fill:none;stroke:white;stroke-width:21.61px;"/>
                </g>
                <g transform="matrix(1,0,0,1,19.8413,23.2919)">
                    <path d="M531.648,526.28C508.631,537.508 494.192,559.805 494.192,584.122C494.186,584.122 494.186,584.123 494.186,584.123L877.208,584.123L877.208,584.122C877.208,558.449 861.397,535.082 836.618,524.133C729.768,476.662 628.282,478.941 531.648,526.28Z" style="fill:none;stroke:white;stroke-width:21.61px;"/>
                </g>
            </g>
        </g>
    </g>
    <defs>
        <linearGradient id="_Linear1" x1="0" y1="0" x2="1" y2="0" gradientUnits="userSpaceOnUse" gradientTransform="matrix(492.643,353.858,-353.858,492.643,416.964,271.461)"><stop offset="0" style="stop-color:rgb(43,153,168);stop-opacity:1"/><stop offset="1" style="stop-color:rgb(100,226,59);stop-opacity:1"/></linearGradient>
    </defs>
</svg>
